<mxfile host="app.diagrams.net" agent="Mozilla/5.0 (Windows NT 10.0; Win64; x64) AppleWebKit/537.36 (KHTML, like Gecko) Chrome/129.0.0.0 Safari/537.36" version="24.7.17">
  <diagram name="Страница — 1" id="3xjHfWx6RkRSJKavjln_">
    <mxGraphModel dx="1434" dy="780" grid="1" gridSize="10" guides="1" tooltips="1" connect="1" arrows="1" fold="1" page="1" pageScale="1" pageWidth="827" pageHeight="1169" math="0" shadow="0">
      <root>
        <mxCell id="0" />
        <mxCell id="1" parent="0" />
        <mxCell id="wq3axSV_e3y4cIcXYfqu-3" value="NeobankApp" style="whiteSpace=wrap;strokeWidth=2;verticalAlign=top;" vertex="1" parent="1">
          <mxGeometry x="20" y="110" width="1332" height="565" as="geometry" />
        </mxCell>
        <mxCell id="wq3axSV_e3y4cIcXYfqu-4" value="User" style="whiteSpace=wrap;strokeWidth=2;" vertex="1" parent="wq3axSV_e3y4cIcXYfqu-3">
          <mxGeometry x="638" y="46" width="93" height="49" as="geometry" />
        </mxCell>
        <mxCell id="wq3axSV_e3y4cIcXYfqu-5" value="Register Account" style="whiteSpace=wrap;strokeWidth=2;" vertex="1" parent="wq3axSV_e3y4cIcXYfqu-3">
          <mxGeometry x="43" y="193" width="180" height="49" as="geometry" />
        </mxCell>
        <mxCell id="wq3axSV_e3y4cIcXYfqu-6" value="Login" style="whiteSpace=wrap;strokeWidth=2;" vertex="1" parent="wq3axSV_e3y4cIcXYfqu-3">
          <mxGeometry x="273" y="193" width="98" height="49" as="geometry" />
        </mxCell>
        <mxCell id="wq3axSV_e3y4cIcXYfqu-7" value="View Account Balance" style="whiteSpace=wrap;strokeWidth=2;" vertex="1" parent="wq3axSV_e3y4cIcXYfqu-3">
          <mxGeometry x="421" y="193" width="218" height="49" as="geometry" />
        </mxCell>
        <mxCell id="wq3axSV_e3y4cIcXYfqu-8" value="Transfer Funds" style="whiteSpace=wrap;strokeWidth=2;" vertex="1" parent="wq3axSV_e3y4cIcXYfqu-3">
          <mxGeometry x="1018" y="340" width="166" height="49" as="geometry" />
        </mxCell>
        <mxCell id="wq3axSV_e3y4cIcXYfqu-9" value="Pay Bills" style="whiteSpace=wrap;strokeWidth=2;" vertex="1" parent="wq3axSV_e3y4cIcXYfqu-3">
          <mxGeometry x="800" y="487" width="119" height="49" as="geometry" />
        </mxCell>
        <mxCell id="wq3axSV_e3y4cIcXYfqu-10" value="Mobile Payment" style="whiteSpace=wrap;strokeWidth=2;" vertex="1" parent="wq3axSV_e3y4cIcXYfqu-3">
          <mxGeometry x="1130" y="193" width="175" height="49" as="geometry" />
        </mxCell>
        <mxCell id="wq3axSV_e3y4cIcXYfqu-11" value="View Transaction History" style="whiteSpace=wrap;strokeWidth=2;" vertex="1" parent="wq3axSV_e3y4cIcXYfqu-3">
          <mxGeometry x="709" y="193" width="238" height="49" as="geometry" />
        </mxCell>
        <mxCell id="wq3axSV_e3y4cIcXYfqu-12" value="Bank System" style="whiteSpace=wrap;strokeWidth=2;" vertex="1" parent="wq3axSV_e3y4cIcXYfqu-3">
          <mxGeometry x="960" y="46" width="150" height="49" as="geometry" />
        </mxCell>
        <mxCell id="wq3axSV_e3y4cIcXYfqu-13" value="Merchant" style="whiteSpace=wrap;strokeWidth=2;" vertex="1" parent="wq3axSV_e3y4cIcXYfqu-3">
          <mxGeometry x="1177" y="46" width="128" height="49" as="geometry" />
        </mxCell>
        <mxCell id="wq3axSV_e3y4cIcXYfqu-14" value="" style="curved=1;startArrow=none;endArrow=block;exitX=0;exitY=0.62;entryX=0.5;entryY=-0.01;rounded=0;" edge="1" parent="wq3axSV_e3y4cIcXYfqu-3" source="wq3axSV_e3y4cIcXYfqu-4" target="wq3axSV_e3y4cIcXYfqu-5">
          <mxGeometry relative="1" as="geometry">
            <Array as="points">
              <mxPoint x="133" y="144" />
            </Array>
          </mxGeometry>
        </mxCell>
        <mxCell id="wq3axSV_e3y4cIcXYfqu-15" value="" style="curved=1;startArrow=none;endArrow=block;exitX=0;exitY=0.68;entryX=0.5;entryY=-0.01;rounded=0;" edge="1" parent="wq3axSV_e3y4cIcXYfqu-3" source="wq3axSV_e3y4cIcXYfqu-4" target="wq3axSV_e3y4cIcXYfqu-6">
          <mxGeometry relative="1" as="geometry">
            <Array as="points">
              <mxPoint x="322" y="144" />
            </Array>
          </mxGeometry>
        </mxCell>
        <mxCell id="wq3axSV_e3y4cIcXYfqu-16" value="" style="curved=1;startArrow=none;endArrow=block;exitX=0;exitY=0.94;entryX=0.5;entryY=-0.01;rounded=0;" edge="1" parent="wq3axSV_e3y4cIcXYfqu-3" source="wq3axSV_e3y4cIcXYfqu-4" target="wq3axSV_e3y4cIcXYfqu-7">
          <mxGeometry relative="1" as="geometry">
            <Array as="points">
              <mxPoint x="530" y="144" />
            </Array>
          </mxGeometry>
        </mxCell>
        <mxCell id="wq3axSV_e3y4cIcXYfqu-17" value="" style="curved=1;startArrow=none;endArrow=block;exitX=1;exitY=0.68;entryX=0.38;entryY=-0.01;rounded=0;" edge="1" parent="wq3axSV_e3y4cIcXYfqu-3" source="wq3axSV_e3y4cIcXYfqu-4" target="wq3axSV_e3y4cIcXYfqu-8">
          <mxGeometry relative="1" as="geometry">
            <Array as="points">
              <mxPoint x="1042" y="144" />
              <mxPoint x="1042" y="291" />
            </Array>
          </mxGeometry>
        </mxCell>
        <mxCell id="wq3axSV_e3y4cIcXYfqu-18" value="" style="curved=1;startArrow=none;endArrow=block;exitX=0.46;exitY=0.99;entryX=0;entryY=0.01;rounded=0;" edge="1" parent="wq3axSV_e3y4cIcXYfqu-3" source="wq3axSV_e3y4cIcXYfqu-4" target="wq3axSV_e3y4cIcXYfqu-9">
          <mxGeometry relative="1" as="geometry">
            <Array as="points">
              <mxPoint x="674" y="144" />
              <mxPoint x="674" y="438" />
            </Array>
          </mxGeometry>
        </mxCell>
        <mxCell id="wq3axSV_e3y4cIcXYfqu-19" value="" style="curved=1;startArrow=none;endArrow=block;exitX=1;exitY=0.65;entryX=0.32;entryY=-0.01;rounded=0;" edge="1" parent="wq3axSV_e3y4cIcXYfqu-3" source="wq3axSV_e3y4cIcXYfqu-4" target="wq3axSV_e3y4cIcXYfqu-10">
          <mxGeometry relative="1" as="geometry">
            <Array as="points">
              <mxPoint x="1123" y="144" />
            </Array>
          </mxGeometry>
        </mxCell>
        <mxCell id="wq3axSV_e3y4cIcXYfqu-20" value="" style="curved=1;startArrow=none;endArrow=block;exitX=0.77;exitY=0.99;entryX=0.41;entryY=-0.01;rounded=0;" edge="1" parent="wq3axSV_e3y4cIcXYfqu-3" source="wq3axSV_e3y4cIcXYfqu-4" target="wq3axSV_e3y4cIcXYfqu-11">
          <mxGeometry relative="1" as="geometry">
            <Array as="points">
              <mxPoint x="761" y="144" />
            </Array>
          </mxGeometry>
        </mxCell>
        <mxCell id="wq3axSV_e3y4cIcXYfqu-21" value="" style="curved=1;startArrow=none;endArrow=block;exitX=0.56;exitY=0.99;entryX=0.42;entryY=-0.01;rounded=0;" edge="1" parent="wq3axSV_e3y4cIcXYfqu-3" source="wq3axSV_e3y4cIcXYfqu-12" target="wq3axSV_e3y4cIcXYfqu-8">
          <mxGeometry relative="1" as="geometry">
            <Array as="points">
              <mxPoint x="1062" y="144" />
              <mxPoint x="1062" y="291" />
            </Array>
          </mxGeometry>
        </mxCell>
        <mxCell id="wq3axSV_e3y4cIcXYfqu-22" value="" style="curved=1;startArrow=none;endArrow=block;exitX=0.38;exitY=0.99;entryX=0.85;entryY=-0.01;rounded=0;" edge="1" parent="wq3axSV_e3y4cIcXYfqu-3" source="wq3axSV_e3y4cIcXYfqu-12" target="wq3axSV_e3y4cIcXYfqu-9">
          <mxGeometry relative="1" as="geometry">
            <Array as="points">
              <mxPoint x="983" y="144" />
              <mxPoint x="983" y="438" />
            </Array>
          </mxGeometry>
        </mxCell>
        <mxCell id="wq3axSV_e3y4cIcXYfqu-23" value="" style="curved=1;startArrow=none;endArrow=block;exitX=0.74;exitY=0.99;entryX=0.36;entryY=-0.01;rounded=0;" edge="1" parent="wq3axSV_e3y4cIcXYfqu-3" source="wq3axSV_e3y4cIcXYfqu-12" target="wq3axSV_e3y4cIcXYfqu-10">
          <mxGeometry relative="1" as="geometry">
            <Array as="points">
              <mxPoint x="1143" y="144" />
            </Array>
          </mxGeometry>
        </mxCell>
        <mxCell id="wq3axSV_e3y4cIcXYfqu-24" value="" style="curved=1;startArrow=none;endArrow=block;exitX=0.5;exitY=0.99;entryX=0.54;entryY=-0.01;rounded=0;" edge="1" parent="wq3axSV_e3y4cIcXYfqu-3" source="wq3axSV_e3y4cIcXYfqu-13" target="wq3axSV_e3y4cIcXYfqu-10">
          <mxGeometry relative="1" as="geometry">
            <Array as="points">
              <mxPoint x="1241" y="144" />
            </Array>
          </mxGeometry>
        </mxCell>
        <mxCell id="wq3axSV_e3y4cIcXYfqu-25" value="include" style="curved=1;startArrow=none;endArrow=block;exitX=0.5;exitY=0.99;entryX=1;entryY=0.12;rounded=0;" edge="1" parent="wq3axSV_e3y4cIcXYfqu-3" source="wq3axSV_e3y4cIcXYfqu-8" target="wq3axSV_e3y4cIcXYfqu-9">
          <mxGeometry relative="1" as="geometry">
            <Array as="points">
              <mxPoint x="1101" y="438" />
            </Array>
          </mxGeometry>
        </mxCell>
        <mxCell id="wq3axSV_e3y4cIcXYfqu-26" value="extend" style="curved=1;startArrow=none;endArrow=block;exitX=0.5;exitY=0.99;entryX=0.73;entryY=-0.01;rounded=0;" edge="1" parent="wq3axSV_e3y4cIcXYfqu-3" source="wq3axSV_e3y4cIcXYfqu-10" target="wq3axSV_e3y4cIcXYfqu-8">
          <mxGeometry relative="1" as="geometry">
            <Array as="points">
              <mxPoint x="1217" y="291" />
            </Array>
          </mxGeometry>
        </mxCell>
        <mxCell id="wq3axSV_e3y4cIcXYfqu-27" value="association" style="curved=1;startArrow=none;endArrow=block;exitX=1;exitY=0.85;entryX=0.57;entryY=-0.01;rounded=0;" edge="1" parent="wq3axSV_e3y4cIcXYfqu-3" source="wq3axSV_e3y4cIcXYfqu-4" target="wq3axSV_e3y4cIcXYfqu-11">
          <mxGeometry relative="1" as="geometry">
            <Array as="points">
              <mxPoint x="875" y="144" />
            </Array>
          </mxGeometry>
        </mxCell>
      </root>
    </mxGraphModel>
  </diagram>
</mxfile>
